<svg xmlns="http://www.w3.org/2000/svg" xmlns:xlink="http://www.w3.org/1999/xlink" version="1.1"
  x="0px" y="0px" viewBox="0 0 64 64" enable-background="new 0 0 64 64" xml:space="preserve"><g><path d="M48.665,15.176c0-2.703-2.191-4.894-4.894-4.894h-2.854H10.222c-2.663,0-4.822,2.159-4.822,4.822v42.825   c0,2.663,2.159,4.822,4.822,4.822h33.621c2.663,0,4.822-2.159,4.822-4.822V17.896V15.176z M45.037,19.709v36.635   c0,1.534-1.244,2.778-2.778,2.778H11.806c-1.534,0-2.778-1.244-2.778-2.778V16.687c0-1.534,1.244-2.778,2.778-2.778h27.298h3.093   c1.512,0,2.746,1.209,2.777,2.721L45.037,19.709z"/><g><path d="M38.321,24.364H15.745c-0.771,0-1.395-0.625-1.395-1.395c0-0.771,0.625-1.395,1.395-1.395h22.576    c0.771,0,1.395,0.625,1.395,1.395C39.716,23.739,39.091,24.364,38.321,24.364z"/><path d="M38.321,31.137H15.745c-0.771,0-1.395-0.625-1.395-1.395c0-0.771,0.625-1.395,1.395-1.395h22.576    c0.771,0,1.395,0.625,1.395,1.395C39.716,30.513,39.091,31.137,38.321,31.137z"/><path d="M38.321,37.911H15.745c-0.771,0-1.395-0.625-1.395-1.395s0.625-1.395,1.395-1.395h22.576c0.771,0,1.395,0.625,1.395,1.395    S39.091,37.911,38.321,37.911z"/><path d="M38.321,44.684H15.745c-0.771,0-1.395-0.625-1.395-1.395s0.625-1.395,1.395-1.395h22.576c0.771,0,1.395,0.625,1.395,1.395    S39.091,44.684,38.321,44.684z"/><path d="M38.321,51.458H15.745c-0.771,0-1.395-0.625-1.395-1.395s0.625-1.395,1.395-1.395h22.576c0.771,0,1.395,0.625,1.395,1.395    S39.091,51.458,38.321,51.458z"/></g><g><path d="M53.706,1.25h-2.854H20.157c-2.663,0-4.822,2.159-4.822,4.822v1.952h3.628V7.656c0-1.534,1.244-2.778,2.778-2.778h27.298    h3.093c1.512,0,2.746,1.209,2.777,2.721l0.063,3.079v36.635c0,1.534-1.244,2.778-2.778,2.778h-1.271v3.628h2.855    c2.663,0,4.822-2.159,4.822-4.822V8.864v-2.72C58.6,3.441,56.409,1.25,53.706,1.25z"/></g></g></svg>